<?xml version="1.0" standalone="no"?>
<!DOCTYPE svg PUBLIC "-//W3C//DTD SVG 20010904//EN"
 "http://www.w3.org/TR/2001/REC-SVG-20010904/DTD/svg10.dtd">
<svg version="1.0" xmlns="http://www.w3.org/2000/svg"
 width="107.000000pt" height="105.000000pt" viewBox="0 0 107.000000 105.000000"
 preserveAspectRatio="xMidYMid meet">

<g transform="translate(0.000000,105.000000) scale(0.100000,-0.100000)"
fill="#000000" stroke="none">
<path d="M302 909 c-100 -49 -182 -90 -182 -92 0 -1 -20 -90 -45 -197 -25
-107 -45 -205 -45 -217 0 -20 219 -309 258 -341 12 -9 74 -12 233 -12 l217 0
133 166 c99 124 132 172 131 192 -1 27 -77 367 -89 398 -8 22 -367 194 -401
193 -15 0 -109 -41 -210 -90z m238 -78 l0 -49 43 -11 c38 -9 65 -24 119 -63
15 -10 22 -8 46 15 15 15 36 27 45 27 23 0 22 -37 -2 -50 -11 -5 -27 -17 -35
-26 -14 -14 -14 -18 1 -47 9 -18 22 -61 28 -97 11 -64 11 -65 48 -71 44 -7 52
-13 43 -35 -4 -11 -13 -14 -29 -10 -68 19 -65 20 -87 -23 -11 -23 -40 -60 -63
-82 l-41 -41 22 -38 c18 -33 19 -40 7 -50 -18 -15 -32 -6 -49 33 l-13 32 -103
-1 -104 0 -13 -33 c-15 -36 -41 -51 -53 -31 -5 9 0 28 13 51 l22 38 -41 38
c-23 21 -51 58 -63 81 -19 37 -26 43 -44 38 -60 -17 -74 -18 -80 -3 -8 21 11
35 53 39 35 3 35 3 41 63 3 33 14 78 24 99 l19 39 -40 33 c-31 27 -36 36 -26
46 8 8 17 9 26 3 68 -50 62 -49 101 -19 20 15 59 35 88 44 51 17 52 18 53 56
1 54 1 54 24 54 17 0 20 -7 20 -49z"/>
<path d="M447 705 c-38 -13 -67 -32 -67 -44 1 -8 76 -61 88 -61 7 0 24 109 18
117 0 0 -18 -5 -39 -12z"/>
<path d="M550 660 c0 -71 7 -74 69 -29 41 30 41 32 22 46 -11 7 -36 20 -56 29
l-35 14 0 -60z"/>
<path d="M321 579 c-6 -18 -11 -45 -11 -60 l0 -28 53 16 c28 8 54 17 56 19 6
5 -70 84 -80 84 -4 0 -12 -14 -18 -31z"/>
<path d="M651 573 c-23 -19 -38 -40 -34 -44 10 -10 105 -40 110 -35 6 5 -18
106 -26 111 -5 2 -27 -12 -50 -32z"/>
<path d="M493 529 c-13 -13 -6 -46 12 -53 7 -2 21 2 32 9 14 11 16 18 7 32
-14 22 -36 27 -51 12z"/>
<path d="M367 440 c-20 -4 -39 -9 -42 -12 -8 -8 54 -88 68 -88 11 0 47 79 47
103 0 8 -20 8 -73 -3z"/>
<path d="M596 442 c-3 -6 4 -33 17 -61 l23 -52 26 28 c31 34 51 70 41 76 -19
11 -102 17 -107 9z"/>
<path d="M486 366 c-14 -25 -26 -49 -26 -55 0 -11 102 -16 112 -5 6 6 -38 90
-52 99 -4 3 -20 -15 -34 -39z"/>
</g>
</svg>
